<?xml version="1.0" standalone="no"?>
<!DOCTYPE svg PUBLIC "-//W3C//DTD SVG 20010904//EN"
 "http://www.w3.org/TR/2001/REC-SVG-20010904/DTD/svg10.dtd">
<svg version="1.0" xmlns="http://www.w3.org/2000/svg"
 width="512.000000pt" height="512.000000pt" viewBox="0 0 512.000000 512.000000"
 preserveAspectRatio="xMidYMid meet">
<metadata>
Created by potrace 1.14, written by Peter Selinger 2001-2017
</metadata>
<g transform="translate(0.000000,512.000000) scale(0.100000,-0.100000)"
fill="#000000" stroke="none">
<path d="M2060 4074 c-16 -42 -12 -72 18 -116 37 -57 35 -121 -7 -257 -18 -57
-35 -129 -37 -160 l-4 -56 15 50 c20 62 52 148 73 197 20 45 47 50 57 11 7
-26 8 -26 15 -8 16 43 20 132 9 185 -29 139 -111 229 -139 154z"/>
<path d="M2886 4078 c-23 -32 -20 -72 9 -114 47 -69 45 -107 -20 -323 -26 -86
-33 -147 -15 -136 6 3 10 17 10 31 0 13 4 32 9 42 8 14 54 139 67 180 2 6 15
12 30 12 19 0 25 -4 21 -15 -4 -8 -2 -17 3 -20 13 -8 24 58 23 133 -1 102 -61
232 -107 232 -8 0 -22 -10 -30 -22z"/>
<path d="M2118 3418 c-5 -36 12 -94 36 -120 21 -22 21 -22 24 -2 2 11 -10 49
-27 83 -24 50 -30 58 -33 39z"/>
<path d="M2940 3389 c0 -25 9 -55 21 -75 23 -38 39 -44 39 -15 0 19 -48 131
-56 131 -2 0 -4 -19 -4 -41z"/>
<path d="M2882 3195 c-19 -9 -32 -21 -32 -32 0 -16 14 -20 108 -31 60 -7 128
-20 153 -28 102 -35 178 -113 209 -214 8 -25 14 -88 14 -140 l1 -95 85 3 c236
9 406 -87 498 -278 22 -47 46 -112 53 -145 19 -86 16 -265 -5 -348 -17 -69
-16 -95 2 -60 25 46 36 146 36 303 0 147 -3 171 -23 220 -32 80 -70 152 -93
177 -11 12 -18 26 -14 31 9 14 -53 65 -123 101 -85 43 -197 71 -288 71 -61 0
-76 3 -94 21 -19 19 -21 29 -16 84 5 49 3 66 -8 75 -8 7 -15 20 -15 30 0 38
-63 142 -104 172 -76 56 -200 97 -236 78 -15 -8 -27 -7 -48 4 -23 12 -32 12
-60 1z"/>
<path d="M2010 3184 c-78 -21 -131 -49 -175 -92 -37 -37 -85 -122 -85 -153 0
-9 -7 -22 -15 -29 -15 -13 -20 -42 -9 -53 10 -10 4 -211 -6 -221 -6 -6 -7 -53
-3 -111 10 -172 -32 -261 -135 -285 -61 -14 -97 -42 -106 -82 -6 -27 6 -38 19
-18 3 6 29 10 56 10 90 0 156 47 179 128 5 21 10 145 10 285 0 200 3 260 16
305 24 82 47 123 92 164 37 33 58 45 135 76 15 7 79 17 142 24 63 6 115 14
115 18 0 3 -6 15 -14 25 -12 16 -28 20 -88 21 -40 1 -98 -4 -128 -12z"/>
<path d="M2244 3093 c-2 -7 -6 -19 -8 -27 -3 -8 -27 -15 -65 -19 -74 -6 -150
-42 -171 -79 -22 -41 -5 -45 56 -14 57 29 67 32 204 63 103 23 421 23 535 0
86 -17 163 -40 207 -63 15 -8 32 -14 38 -14 17 0 11 46 -9 64 -24 21 -103 46
-148 46 -25 0 -36 5 -41 21 -10 27 -39 30 -351 32 -187 2 -244 -1 -247 -10z"/>
<path d="M1971 2902 c-14 -25 -14 -42 -1 -42 16 0 33 41 22 52 -7 7 -14 3 -21
-10z"/>
<path d="M3095 2888 c10 -31 25 -47 25 -26 0 24 -11 48 -22 48 -5 0 -6 -10 -3
-22z"/>
<path d="M1952 2690 c0 -19 2 -27 5 -17 2 9 2 25 0 35 -3 9 -5 1 -5 -18z"/>
<path d="M1950 2600 c0 -37 4 -50 13 -48 19 7 21 72 3 88 -14 11 -16 6 -16
-40z"/>
<path d="M3102 2598 c4 -59 28 -63 28 -4 0 35 -4 46 -16 46 -12 0 -14 -9 -12
-42z"/>
<path d="M1950 2499 c0 -22 4 -38 9 -35 5 3 9 22 9 41 0 19 -4 35 -9 35 -5 0
-9 -18 -9 -41z"/>
<path d="M3112 2520 c0 -14 2 -19 5 -12 2 6 2 18 0 25 -3 6 -5 1 -5 -13z"/>
<path d="M3345 2466 c-11 -41 0 -188 18 -222 33 -64 87 -94 166 -94 26 0 52
-5 59 -12 9 -9 12 -5 12 18 0 41 -25 61 -96 81 -84 23 -129 85 -143 197 -7 53
-9 58 -16 32z"/>
<path d="M3735 2167 c0 -156 -1 -164 -28 -221 -32 -70 -99 -146 -142 -163 -43
-16 -121 -16 -155 2 -29 15 -29 15 -26 100 2 47 2 85 0 85 -19 0 -59 -213 -46
-247 6 -19 98 -43 162 -43 70 0 147 36 189 89 66 83 97 278 71 449 -7 48 -16
92 -19 99 -3 6 -6 -61 -6 -150z"/>
<path d="M1752 2124 c-36 -16 -38 -33 -6 -49 90 -47 147 -110 180 -200 15 -42
19 -95 23 -320 6 -264 7 -272 31 -320 33 -65 88 -94 192 -102 l74 -6 -2 -41
-2 -41 -113 0 c-103 0 -121 3 -189 30 l-75 30 -532 -5 -531 -5 50 -62 50 -63
1659 0 1658 0 52 63 52 62 -554 5 -554 5 -70 -29 c-60 -24 -88 -30 -187 -34
l-118 -4 0 34 0 33 -235 -3 c-129 -3 -260 -1 -290 3 -54 6 -55 7 -55 39 0 44
-26 65 -91 73 -39 5 -48 8 -34 14 27 11 785 10 810 -1 17 -7 15 -9 -11 -9 -69
-2 -114 -34 -114 -83 0 -18 149 -4 202 19 91 41 108 101 108 389 0 116 5 235
10 264 22 114 86 208 175 255 21 11 40 26 42 32 4 10 -55 43 -77 43 -15 0 -89
-80 -124 -134 -38 -59 -72 -168 -60 -195 10 -23 4 -115 -8 -122 -5 -4 -12 -24
-14 -45 -2 -22 -6 -56 -9 -76 -4 -30 -1 -39 15 -48 15 -8 20 -21 20 -56 0 -39
-3 -46 -26 -54 -34 -13 -1034 -13 -1068 0 -22 8 -26 16 -26 53 0 28 6 48 18
58 15 13 17 26 12 87 -3 40 -10 76 -17 80 -13 8 -19 98 -8 124 20 49 -55 209
-137 289 -44 43 -48 44 -96 23z"/>
<path d="M1693 1935 c14 -100 19 -237 10 -244 -6 -3 -15 -39 -20 -79 -8 -60
-7 -77 4 -88 8 -8 17 -14 21 -14 4 0 8 -22 9 -49 1 -43 -1 -50 -20 -55 -12 -3
-259 -6 -549 -6 -291 0 -528 -3 -528 -6 0 -10 61 -117 78 -136 14 -17 53 -18
544 -18 l528 0 -5 23 c-3 12 -9 42 -15 67 -5 25 -10 152 -10 284 0 238 -7 297
-38 341 -13 18 -14 17 -9 -20z"/>
<path d="M3340 1493 c0 -86 -13 -204 -26 -237 -6 -15 38 -16 550 -16 l555 0
45 78 45 77 -562 5 c-309 3 -567 9 -574 13 -8 5 -11 25 -9 54 4 52 15 60 76
63 l35 2 -30 7 c-16 4 -44 15 -62 24 -18 9 -34 17 -38 17 -3 0 -5 -39 -5 -87z"/>
<path d="M3695 1550 c-8 -13 5 -13 25 0 13 8 13 10 -2 10 -9 0 -20 -4 -23 -10z"/>
<path d="M3638 1533 c7 -3 16 -2 19 1 4 3 -2 6 -13 5 -11 0 -14 -3 -6 -6z"/>
<path d="M1050 815 c0 -2 32 -31 70 -65 l71 -60 1372 0 1373 0 69 65 70 64
-1512 1 c-832 0 -1513 -2 -1513 -5z"/>
</g>
</svg>
